<?xml version="1.0" encoding="UTF-8" standalone="no"?>
<svg
  xmlns="http://www.w3.org/2000/svg"
  style="display:inline;enable-background:new"
  version="1.0"
  height="48"
  width="48">
  <title>Darkstore Scalable Icon</title>
  <path d="M23.9171 5.998L24.0645 6.00288C25.5697 6.10813 26.4374 7.81454 25.584 9.10249L24.92 10.1054C23.9171 12.002 23.1742 14.2177 23.0001 16.4775C22.9473 17.1627 22.9473 18.0161 22.9473 18.0161C22.9474 22.8953 25.584 27.002 28.8028 30.7178C29.7835 31.5685 29.1821 32.998 27.8839 32.998H16.3624L7.6817 40.6777C6.8386 41.5218 5.69509 41.9969 4.50201 41.998C3.30854 41.998 2.16429 41.5236 1.32037 40.6796C0.476461 39.8357 0.00201416 38.6915 0.00201416 37.498V19.998C0.00201416 16.2851 0.950007 12.7241 2.63776 10.0986C4.32558 7.47308 6.61507 5.998 9.00201 5.998H23.9171Z" fill="url(#a)"/>
  <path d="M29.25 32.002L29.2422 32.0323C29.0995 32.6022 28.5875 33.002 28 33.002H16.3604L7.67969 40.6817C6.83658 41.5258 5.69307 42.0009 4.5 42.002C3.30653 42.002 2.16227 41.5276 1.31836 40.6836C0.474446 39.8397 0 38.6955 0 37.502V36.502C0 37.6955 0.474446 38.8397 1.31836 39.6836C2.16227 40.5276 3.30653 41.002 4.5 41.002C5.69307 41.0009 6.83658 40.5258 7.67969 39.6817L16.3604 32.002H29.25Z" fill="#292C2F" opacity="0.2"/>
  <path d="M18.002 16.998C18.002 18.8545 17.2645 20.635 15.9517 21.9477C14.639 23.2605 12.8585 23.998 11.002 23.998C9.14548 23.998 7.36501 23.2605 6.05225 21.9477C4.7395 20.635 4.002 18.8545 4.002 16.998C4.002 15.1415 4.7395 13.361 6.05225 12.0483C7.36501 10.7355 9.14548 9.998 11.002 9.998C12.8585 9.998 14.639 10.7355 15.9517 12.0483C17.2645 13.361 18.002 15.1415 18.002 16.998Z" fill="url(#b)" fill-rule="evenodd" clip-rule="evenodd"/>
  <path d="M11 22.002C13.7614 22.002 16 19.7634 16 17.002C16 14.2406 13.7614 12.002 11 12.002C8.23858 12.002 6 14.2406 6 17.002C6 19.7634 8.23858 22.002 11 22.002Z" fill="url(#c)"/>
  <path d="M11.002 11.998C10.3132 12.0001 9.63235 12.1444 9.002 12.422V14.998H6.422C6.1458 15.6286 6.00281 16.3095 6.002 16.998C6.00407 17.6868 6.14842 18.3677 6.426 18.998H9.002V21.578C9.63264 21.8542 10.3135 21.9972 11.002 21.998C11.6908 21.9959 12.3717 21.8516 13.002 21.574V18.998H15.582C15.8582 18.3674 16.0012 17.6865 16.002 16.998C16.0006 16.3094 15.8569 15.6285 15.58 14.998H13.002V12.418C12.3714 12.1418 11.6905 11.9988 11.002 11.998Z" fill="url(#d)" fill-rule="evenodd" clip-rule="evenodd"/>
  <path d="M24.002 29.498C24.002 30.2203 23.8597 30.9355 23.5833 31.6028C23.3069 32.27 22.9018 32.8764 22.3911 33.3871C21.8804 33.8978 21.274 34.3029 20.6068 34.5793C19.9395 34.8557 19.2243 34.998 18.502 34.998C17.7797 34.998 17.0645 34.8557 16.3972 34.5793C15.7299 34.3029 15.1236 33.8978 14.6129 33.3871C14.1022 32.8764 13.6971 32.27 13.4207 31.6028C13.1443 30.9355 13.002 30.2203 13.002 29.498C13.002 28.0393 13.5815 26.6404 14.6129 25.6089C15.6444 24.5775 17.0433 23.998 18.502 23.998C19.9607 23.998 21.3596 24.5775 22.3911 25.6089C23.4225 26.6404 24.002 28.0393 24.002 29.498Z" fill="url(#e)" fill-rule="evenodd" clip-rule="evenodd"/>
  <path d="M22.002 29.498C22.002 30.4263 21.6332 31.3165 20.9769 31.9729C20.3205 32.6293 19.4303 32.998 18.502 32.998C17.5737 32.998 16.6835 32.6293 16.0271 31.9729C15.3707 31.3165 15.002 30.4263 15.002 29.498C15.002 28.5697 15.3707 27.6795 16.0271 27.0231C16.6835 26.3667 17.5737 25.998 18.502 25.998C19.4303 25.998 20.3205 26.3667 20.9769 27.0231C21.6332 27.6795 22.002 28.5697 22.002 29.498Z" fill="url(#f)" fill-rule="evenodd" clip-rule="evenodd"/>
  <path d="M0.00201416 19.998V37.498C0.00329639 38.2153 0.176045 38.922 0.505857 39.559C0.835669 40.196 1.31299 40.7449 1.89801 41.16C2.53392 40.5609 3.06528 39.6718 3.43572 38.5869C3.80615 37.502 4.00184 36.2618 4.00201 34.998V26.998C4.00201 25.1415 3.58059 23.361 2.83044 22.0483C2.0803 20.7355 1.06288 19.998 0.00201416 19.998Z" fill="url(#g)" fill-rule="evenodd" clip-rule="evenodd"/>
  <path d="M32.2 35.1187H40.8008L39.7257 36.2902V40.8049L38.6506 41.9765H34.3502L33.2751 40.8049V36.2902L32.2 35.1187Z" fill="url(#h)"/>
  <path d="M33.4543 39.8049L35.4253 41.9765H38.6506L37.7547 38.6334L33.4543 39.8049Z" fill="url(#i)" fill-rule="evenodd" clip-rule="evenodd" opacity="0.2"/>
  <path d="M37.5755 40.9765L39.7257 39.8049V36.2902L40.8008 35.1187H32.2L37.5755 40.9765Z" fill="url(#j)" fill-rule="evenodd" clip-rule="evenodd" opacity="0.2"/>
  <path d="M33.2751 38.6334L34.3502 39.8049L39.7256 38.6334V36.2902L33.2751 37.4618V38.6334Z" fill="url(#k)" fill-rule="evenodd" clip-rule="evenodd" opacity="0.2"/>
  <path d="M39.9958 37.5971L32.7261 39.7179C32.4393 39.8015 32.2691 40.1227 32.346 40.4351C32.4229 40.7476 32.7178 40.9331 33.0045 40.8494L40.2743 38.7287C40.5611 38.645 40.7312 38.3238 40.6543 38.0114C40.5774 37.6989 40.2826 37.5134 39.9958 37.5971Z" fill="url(#l)"/>
  <path d="M39.9958 35.2577L32.7261 37.3785C32.4393 37.4622 32.2691 37.7833 32.346 38.0958C32.4229 38.4083 32.7178 38.5938 33.0045 38.5101L40.2743 36.3893C40.5611 36.3056 40.7312 35.9845 40.6543 35.672C40.5774 35.3595 40.2826 35.1741 39.9958 35.2577Z" fill="url(#m)"/>
  <path d="M37 6.002C30.3724 6.002 25 11.2471 25 17.7177C25.0024 22.3735 27.4 25.122 29.8 27.2777C32.2 29.4334 31 33.9481 32.2 35.1197H40.8C42 33.9481 40.8 29.4334 43.2 27.2683C45.6 25.1033 47.994 22.37 48 17.7177C48 11.2471 43.6276 6.002 37 6.002Z" fill="url(#n)"/>
  <defs>
    <linearGradient id="a" x1="0.00201416" y1="5.998" x2="0.00201416" y2="42.998" gradientUnits="userSpaceOnUse">
      <stop stop-color="#424649"/>
      <stop stop-color="#2D2F32" offset="1"/>
    </linearGradient>
    <linearGradient id="b" x1="4.002" y1="23.998" x2="4.002" y2="9.998" gradientUnits="userSpaceOnUse">
      <stop stop-color="#596364"/>
      <stop stop-color="#4C5455" offset="1"/>
    </linearGradient>
    <linearGradient id="c" x1="16" y1="12.002" x2="16" y2="22.002" gradientUnits="userSpaceOnUse">
      <stop stop-color="#7F8C8D" stop-opacity="0.7"/>
      <stop stop-color="#7F8C8D" stop-opacity="0.3" offset="0.600995"/>
      <stop stop-color="#596364" stop-opacity="0.5" offset="1"/>
    </linearGradient>
    <linearGradient id="d" x1="6" y1="22.002" x2="6" y2="12.002" gradientUnits="userSpaceOnUse">
      <stop stop-color="#1B1C1C"/>
      <stop stop-color="#3B4040" offset="1"/>
    </linearGradient>
    <linearGradient id="e" x1="13.002" y1="34.998" x2="13.002" y2="23.998" gradientUnits="userSpaceOnUse">
      <stop stop-color="#596364"/>
      <stop stop-color="#4C5455" offset="1"/>
    </linearGradient>
    <linearGradient id="f" x1="15.0006" y1="33.0008" x2="15.0006" y2="26.0008" gradientUnits="userSpaceOnUse">
      <stop stop-color="#1B1C1C"/>
      <stop stop-color="#3B4040" offset="1"/>
    </linearGradient>
    <linearGradient id="h" x1="39.7257" y1="39.8049" x2="32.9457" y2="35.6571" gradientUnits="userSpaceOnUse">
      <stop stop-color="#4A4D4D"/>
      <stop stop-color="#747D86" offset="1"/>
    </linearGradient>
    <linearGradient id="i" x1="34.3502" y1="39.8049" x2="36.6847" y2="41.9472" gradientUnits="userSpaceOnUse">
      <stop stop-color="#292C2F"/>
      <stop stop-opacity="0" offset="1"/>
    </linearGradient>
    <linearGradient id="j" x1="32.2" y1="37.4618" x2="36.869" y2="41.7464" gradientUnits="userSpaceOnUse">
      <stop stop-color="#292C2F"/>
      <stop stop-opacity="0" offset="1"/>
    </linearGradient>
    <linearGradient id="k" x1="33.2751" y1="37.4618" x2="35.6096" y2="39.6041" gradientUnits="userSpaceOnUse">
      <stop stop-color="#292C2F"/>
      <stop stop-opacity="0" offset="1"/>
    </linearGradient>
    <linearGradient id="l" x1="36.4979" y1="40.9777" x2="34.0136" y2="35.2668" gradientUnits="userSpaceOnUse">
      <stop stop-color="#6C7272"/>
      <stop stop-color="#B6B8BA" offset="1"/>
    </linearGradient>
    <linearGradient id="m" x1="36.4979" y1="38.6384" x2="34.0136" y2="32.9274" gradientUnits="userSpaceOnUse">
      <stop stop-color="#6C7272"/>
      <stop stop-color="#B6B8BA" offset="1"/>
    </linearGradient>
    <linearGradient id="n" x1="8.2" y1="34.1197" x2="8.2" y2="4.83043" gradientUnits="userSpaceOnUse">
      <stop stop-color="#B91414"/>
      <stop stop-color="#CE5B38" offset="1"/>
    </linearGradient>
    <radialGradient id="g" cx="0" cy="0" r="1" gradientTransform="matrix(4 0 0 21 .016 41.135)" gradientUnits="userSpaceOnUse">
      <stop stop-color="#1B1C1C"/>
      <stop stop-color="#212424" offset="1"/>
    </radialGradient>
  </defs>
</svg>
