<?xml version="1.0" encoding="UTF-8" standalone="no"?>
<svg
  xmlns="http://www.w3.org/2000/svg"
  version="1.1"
  height="22"
  width="22">
  <title>Darkstore Symbolic Icon</title>
  <defs>
    <style id="current-color-scheme" type="text/css">
      .ColorScheme-Text { color:#232627; } .ColorScheme-Highlight { color:#3daee9; }
    </style>
  </defs>
  <path d="M11.5011 4.00019V4.78925C11.5011 5.06526 11.2771 5.28904 11.0011 5.28925H6.11147C4.60566 5.29022 3.3725 7.61192 3.37221 10.4475V14.9602C3.33354 15.1068 3.3519 15.2628 3.42202 15.3986C3.49244 15.5341 3.61179 15.6427 3.75796 15.7043C3.90474 15.7656 4.07135 15.7772 4.22573 15.7355C4.38019 15.6936 4.51481 15.6013 4.60464 15.4758L7.40639 12.5353C7.45358 12.4858 7.51963 12.4572 7.58803 12.4572H9.26186V13.1027C9.262 13.2731 9.33343 13.4381 9.46108 13.5588C9.58915 13.6792 9.76448 13.7469 9.94546 13.7473C10.1268 13.7471 10.3025 13.6795 10.4308 13.5588C10.5588 13.438 10.6299 13.2733 10.63 13.1027V12.4572H11.7501C11.8877 12.4572 11.9994 12.5698 12.0001 12.7072V13.1027C11.9882 13.5499 11.8116 13.9799 11.5011 14.3186C11.1905 14.6571 10.7642 14.8839 10.296 14.9602C9.8278 15.036 9.34391 14.9565 8.93081 14.7355C8.51833 14.5144 8.19863 14.1645 8.02846 13.7473L5.56362 16.3781C5.27692 16.6705 4.90058 16.8722 4.48745 16.9562C4.07432 17.0401 3.64233 17.0028 3.25307 16.8478C2.86432 16.6927 2.53527 16.4272 2.31167 16.09C2.08837 15.7525 1.97989 15.3572 2.00307 14.9602V10.4475C2.00341 6.83823 3.8429 4.00098 6.11147 4.00019H11.5011Z" style="color:#232627;opacity:1;fill:#232627;fill-opacity:1;stroke:none" class="ColorScheme-Text"/>
  <path d="M16.0001 4.00019C16.0037 4.00011 18.5796 3.94259 19.5431 5.89277C19.8287 6.47153 20.0316 7.22494 19.9962 8.03535C19.9607 8.84604 19.6701 9.72164 18.9699 10.4396C18.4382 10.9848 18.2061 11.505 18.1007 11.885C18.0062 12.2263 18.0134 12.4119 18.0158 12.4475V12.4611C18.0169 12.4738 18.0176 12.4875 18.0177 12.5002V15.5002C18.0177 15.6327 17.9647 15.76 17.8703 15.8537L16.8615 16.8537C16.767 16.9474 16.6386 17 16.505 17.0002H15.4953C15.3619 16.9998 15.2331 16.9472 15.1388 16.8537L14.13 15.8537C14.036 15.76 13.9826 15.6323 13.9826 15.5002V12.5002C13.9836 12.492 13.985 12.4829 13.9865 12.4748C13.9858 12.4706 13.9851 12.4653 13.9845 12.4611C13.9859 12.4457 14.0005 12.2494 13.8996 11.885C13.7941 11.505 13.5619 10.9846 13.0304 10.4396C12.3308 9.72176 12.0396 8.84576 12.004 8.03535C11.9687 7.22496 12.1715 6.47152 12.4572 5.89277C13.4114 3.96034 15.949 3.9992 16.0001 4.00019ZM14.9914 15.5002H17.0089V14.0002H14.9914V15.5002ZM16.0001 5.00019C15.9568 5.00166 13.9841 5.07555 13.3634 6.33222C13.1494 6.76585 12.9862 7.37941 13.0128 7.99238C13.0397 8.6054 13.2414 9.21423 13.758 9.74433C14.4132 10.4161 14.729 11.0995 14.8732 11.6193C14.9898 12.0405 14.994 12.3717 14.9914 12.4865V13.0002H17.0089V12.3752C17.0136 12.2164 17.0372 11.9459 17.1271 11.6213C17.2713 11.1014 17.587 10.4163 18.2423 9.74433C18.7595 9.21405 18.9605 8.60569 18.9874 7.99238C19.0141 7.37939 18.8509 6.76586 18.6369 6.33222C18.0089 5.06214 16.0001 5.00019 16.0001 5.00019Z" style="color:#232627;opacity:1;fill:#232627;fill-opacity:1;stroke:none" class="ColorScheme-Text"/>
  <path d="M8.59976 6.57832C8.73757 6.57832 8.84933 6.69061 8.84976 6.82832V7.86738H9.96988C10.1074 7.86771 10.2195 7.97988 10.2199 8.11738V8.9084C10.2199 9.04647 10.108 9.1584 9.96988 9.1584H8.84976V10.1975C8.84976 10.3355 8.73783 10.4475 8.59976 10.4475H7.73062C7.59283 10.4471 7.48062 10.3353 7.48062 10.1975V9.1584H6.36148C6.22369 9.15807 6.11148 9.04626 6.11148 8.9084V8.11738C6.11191 7.97988 6.22396 7.86771 6.36148 7.86738H7.48062V6.82832C7.48105 6.69082 7.5931 6.57865 7.73062 6.57832H8.59976Z" style="color:#232627;opacity:1;fill:#232627;fill-opacity:1;stroke:none" class="ColorScheme-Text"/>
</svg>
